<svg width="172" height="53" viewBox="0 0 172 53" fill="none" xmlns="http://www.w3.org/2000/svg">
<path d="M11.9688 28.9688L29.0625 34.7188V44.3125L1.4375 33.0625V24.75L29.0625 13.5V23.0625L11.9688 28.9688ZM73.3125 42.375C71.625 44.25 69.1562 45.7604 65.9062 46.9062C62.6562 48.0521 59.0938 48.625 55.2188 48.625C49.2604 48.625 44.5 46.8021 40.9375 43.1562C37.375 39.5104 35.4688 34.4375 35.2188 27.9375L35.1875 24C35.1875 19.5208 35.9792 15.6146 37.5625 12.2812C39.1458 8.92708 41.4062 6.35417 44.3438 4.5625C47.3021 2.75 50.7188 1.84375 54.5938 1.84375C60.2604 1.84375 64.6562 3.14583 67.7812 5.75C70.9271 8.33333 72.7604 12.1979 73.2812 17.3438H62.7188C62.3438 14.8021 61.5312 12.9896 60.2812 11.9062C59.0312 10.8229 57.2604 10.2812 54.9688 10.2812C52.2188 10.2812 50.0938 11.4479 48.5938 13.7812C47.0938 16.1146 46.3333 19.4479 46.3125 23.7812V26.5312C46.3125 31.0729 47.0833 34.4896 48.625 36.7812C50.1875 39.0521 52.6354 40.1875 55.9688 40.1875C58.8229 40.1875 60.9479 39.5521 62.3438 38.2812V31.2188H54.7188V23.6875H73.3125V42.375ZM115.406 10.9688H101.75V48H90.7812V10.9688H77.375V2.5H115.406V10.9688ZM123.188 51.9062H115.719L131.25 2.5H138.75L123.188 51.9062ZM159.594 28.875L142.594 23.0938V13.5312L170.062 24.7812V33.0938L142.594 44.3438V34.7812L159.594 28.875Z" fill="#FEFEFE"/>
<path d="M11.9688 28.9688L11.6422 28.0236L8.86996 28.9814L11.6499 29.9166L11.9688 28.9688ZM29.0625 34.7188H30.0625V34.0001L29.3813 33.7709L29.0625 34.7188ZM29.0625 44.3125L28.6853 45.2386L30.0625 45.7995V44.3125H29.0625ZM1.4375 33.0625H0.4375V33.735L1.06034 33.9886L1.4375 33.0625ZM1.4375 24.75L1.06034 23.8239L0.4375 24.0775V24.75H1.4375ZM29.0625 13.5H30.0625V12.013L28.6853 12.5739L29.0625 13.5ZM29.0625 23.0625L29.3891 24.0077L30.0625 23.775V23.0625H29.0625ZM11.6499 29.9166L28.7437 35.6666L29.3813 33.7709L12.2876 28.0209L11.6499 29.9166ZM28.0625 34.7188V44.3125H30.0625V34.7188H28.0625ZM29.4397 43.3864L1.81466 32.1364L1.06034 33.9886L28.6853 45.2386L29.4397 43.3864ZM2.4375 33.0625V24.75H0.4375V33.0625H2.4375ZM1.81466 25.6761L29.4397 14.4261L28.6853 12.5739L1.06034 23.8239L1.81466 25.6761ZM28.0625 13.5V23.0625H30.0625V13.5H28.0625ZM28.7359 22.1173L11.6422 28.0236L12.2953 29.9139L29.3891 24.0077L28.7359 22.1173ZM73.3125 42.375L74.0558 43.044L74.3125 42.7587V42.375H73.3125ZM35.2188 27.9375L34.2188 27.9454L34.2189 27.9607L34.2195 27.9759L35.2188 27.9375ZM35.1875 24H34.1875L34.1875 24.0079L35.1875 24ZM37.5625 12.2812L38.4658 12.7103L38.4668 12.7081L37.5625 12.2812ZM44.3438 4.5625L44.8645 5.41623L44.8662 5.41519L44.3438 4.5625ZM67.7812 5.75L67.141 6.51824L67.1466 6.52282L67.7812 5.75ZM73.2812 17.3438V18.3438H74.3876L74.2762 17.243L73.2812 17.3438ZM62.7188 17.3438L61.7295 17.4897L61.8555 18.3438H62.7188V17.3438ZM48.5938 13.7812L49.4349 14.322L48.5938 13.7812ZM46.3125 23.7812L45.3125 23.7764V23.7812H46.3125ZM48.625 36.7812L47.7952 37.3395L47.8012 37.3481L48.625 36.7812ZM62.3438 38.2812L63.017 39.0207L63.3438 38.7232V38.2812H62.3438ZM62.3438 31.2188H63.3438V30.2188H62.3438V31.2188ZM54.7188 31.2188H53.7188V32.2188H54.7188V31.2188ZM54.7188 23.6875V22.6875H53.7188V23.6875H54.7188ZM73.3125 23.6875H74.3125V22.6875H73.3125V23.6875ZM72.5692 41.706C71.027 43.4196 68.7211 44.8535 65.5737 45.9631L66.2388 47.8494C69.5914 46.6673 72.223 45.0804 74.0558 43.044L72.5692 41.706ZM65.5737 45.9631C62.443 47.0669 58.9945 47.625 55.2188 47.625V49.625C59.193 49.625 62.8695 49.0372 66.2388 47.8494L65.5737 45.9631ZM55.2188 47.625C49.4804 47.625 44.9952 45.8781 41.6527 42.4574L40.2223 43.8551C44.0048 47.7261 49.0404 49.625 55.2188 49.625V47.625ZM41.6527 42.4574C38.3073 39.0337 36.4612 34.222 36.218 27.8991L34.2195 27.9759C34.4763 34.653 36.4427 39.9872 40.2223 43.8551L41.6527 42.4574ZM36.2187 27.9296L36.1875 23.9921L34.1875 24.0079L34.2188 27.9454L36.2187 27.9296ZM36.1875 24C36.1875 19.6381 36.9583 15.884 38.4658 12.7103L36.6592 11.8522C35.0001 15.3452 34.1875 19.4036 34.1875 24H36.1875ZM38.4668 12.7081C39.9735 9.51625 42.1069 7.09815 44.8645 5.41623L43.823 3.70877C40.7056 5.61018 38.3181 8.33791 36.6582 11.8544L38.4668 12.7081ZM44.8662 5.41519C47.6494 3.70997 50.881 2.84375 54.5938 2.84375V0.84375C50.5565 0.84375 46.9548 1.79003 43.8213 3.70981L44.8662 5.41519ZM54.5938 2.84375C60.1176 2.84375 64.2551 4.11328 67.1411 6.51822L68.4214 4.98178C65.0574 2.17838 60.4033 0.84375 54.5938 0.84375V2.84375ZM67.1466 6.52282C70.0368 8.89623 71.7845 12.4868 72.2863 17.4445L74.2762 17.243C73.7363 11.909 71.8173 7.77043 68.4159 4.97718L67.1466 6.52282ZM73.2812 16.3438H62.7188V18.3438H73.2812V16.3438ZM63.708 17.1978C63.3165 14.5443 62.4437 12.4571 60.9362 11.1506L59.6263 12.6619C60.6188 13.522 61.371 15.0599 61.7295 17.4897L63.708 17.1978ZM60.9362 11.1506C59.4449 9.85811 57.4085 9.28125 54.9688 9.28125V11.2812C57.1124 11.2812 58.6176 11.7877 59.6263 12.6619L60.9362 11.1506ZM54.9688 9.28125C51.8749 9.28125 49.4346 10.624 47.7526 13.2405L49.4349 14.322C50.7529 12.2719 52.5626 11.2812 54.9688 11.2812V9.28125ZM47.7526 13.2405C46.1071 15.8 45.3338 19.3512 45.3125 23.7764L47.3125 23.7861C47.3329 19.5446 48.0804 16.4291 49.4349 14.322L47.7526 13.2405ZM45.3125 23.7812V26.5312H47.3125V23.7812H45.3125ZM45.3125 26.5312C45.3125 31.1559 46.092 34.8075 47.7953 37.3394L49.4547 36.2231C48.0747 34.1717 47.3125 30.99 47.3125 26.5312H45.3125ZM47.8012 37.3481C49.5907 39.9489 52.3847 41.1875 55.9688 41.1875V39.1875C52.8861 39.1875 50.7843 38.1553 49.4488 36.2144L47.8012 37.3481ZM55.9688 41.1875C58.9481 41.1875 61.3623 40.5272 63.017 39.0207L61.6705 37.5418C60.5335 38.577 58.6978 39.1875 55.9688 39.1875V41.1875ZM63.3438 38.2812V31.2188H61.3438V38.2812H63.3438ZM62.3438 30.2188H54.7188V32.2188H62.3438V30.2188ZM55.7188 31.2188V23.6875H53.7188V31.2188H55.7188ZM54.7188 24.6875H73.3125V22.6875H54.7188V24.6875ZM72.3125 23.6875V42.375H74.3125V23.6875H72.3125ZM115.406 10.9688V11.9688H116.406V10.9688H115.406ZM101.75 10.9688V9.96875H100.75V10.9688H101.75ZM101.75 48V49H102.75V48H101.75ZM90.7812 48H89.7812V49H90.7812V48ZM90.7812 10.9688H91.7812V9.96875H90.7812V10.9688ZM77.375 10.9688H76.375V11.9688H77.375V10.9688ZM77.375 2.5V1.5H76.375V2.5H77.375ZM115.406 2.5H116.406V1.5H115.406V2.5ZM115.406 9.96875H101.75V11.9688H115.406V9.96875ZM100.75 10.9688V48H102.75V10.9688H100.75ZM101.75 47H90.7812V49H101.75V47ZM91.7812 48V10.9688H89.7812V48H91.7812ZM90.7812 9.96875H77.375V11.9688H90.7812V9.96875ZM78.375 10.9688V2.5H76.375V10.9688H78.375ZM77.375 3.5H115.406V1.5H77.375V3.5ZM114.406 2.5V10.9688H116.406V2.5H114.406ZM123.188 51.9062V52.9062H123.921L124.141 52.2067L123.188 51.9062ZM115.719 51.9062L114.765 51.6064L114.356 52.9062H115.719V51.9062ZM131.25 2.5V1.5H130.516L130.296 2.20011L131.25 2.5ZM138.75 2.5L139.704 2.80044L140.113 1.5H138.75V2.5ZM123.188 50.9062H115.719V52.9062H123.188V50.9062ZM116.673 52.2061L132.204 2.79989L130.296 2.20011L114.765 51.6064L116.673 52.2061ZM131.25 3.5H138.75V1.5H131.25V3.5ZM137.796 2.19956L122.234 51.6058L124.141 52.2067L139.704 2.80044L137.796 2.19956ZM159.594 28.875L159.922 29.8196L162.67 28.8649L159.916 27.9282L159.594 28.875ZM142.594 23.0938H141.594V23.8099L142.272 24.0405L142.594 23.0938ZM142.594 13.5312L142.973 12.6059L141.594 12.0411V13.5312H142.594ZM170.062 24.7812H171.062V24.1102L170.442 23.8559L170.062 24.7812ZM170.062 33.0938L170.442 34.0191L171.062 33.7648V33.0938H170.062ZM142.594 44.3438H141.594V45.8339L142.973 45.2691L142.594 44.3438ZM142.594 34.7812L142.266 33.8366L141.594 34.07V34.7812H142.594ZM159.916 27.9282L142.916 22.147L142.272 24.0405L159.272 29.8218L159.916 27.9282ZM143.594 23.0938V13.5312H141.594V23.0938H143.594ZM142.215 14.4566L169.683 25.7066L170.442 23.8559L142.973 12.6059L142.215 14.4566ZM169.062 24.7812V33.0938H171.062V24.7812H169.062ZM169.683 32.1684L142.215 43.4184L142.973 45.2691L170.442 34.0191L169.683 32.1684ZM143.594 44.3438V34.7812H141.594V44.3438H143.594ZM142.922 35.7259L159.922 29.8196L159.266 27.9304L142.266 33.8366L142.922 35.7259Z" fill="black"/>
</svg>
